<svg width="366" height="306" viewBox="0 0 366 306" fill="none" xmlns="http://www.w3.org/2000/svg">
<rect width="366" height="247" rx="8" fill="#000066"/>
<path d="M156.773 149.4L175.473 150.3L175.973 163.1L171.973 170.2L127.073 170.8L120.473 166.9L119.973 119L123.973 112.3L169.473 113.2L176.973 118.3L175.573 139.3H156.273L155.173 128.7L141.473 128.1L141.873 154.6L155.073 155.5L156.773 149.4ZM242.531 113.4L247.031 117.6L246.531 166.5L242.631 170.9L229.131 170.5L227.931 135.7L223.131 134.8L220.231 166.9L206.531 164.7L205.231 135.5L200.831 135.8L198.531 170.9L180.031 170.7L180.931 112.6L193.331 112.7L195.031 116L198.131 113.3H210.531L213.931 118.6L218.531 113.5L242.531 113.4Z" fill="#FF9434"/>
<path d="M49.8871 299.21C48.2071 299.21 46.7071 298.86 45.3871 298.16C44.0871 297.44 43.0671 296.46 42.3271 295.22C41.5871 293.98 41.2171 292.57 41.2171 290.99C41.2171 289.39 41.5871 287.98 42.3271 286.76C43.0671 285.52 44.0871 284.55 45.3871 283.85C46.7071 283.15 48.2071 282.8 49.8871 282.8C51.4471 282.8 52.8171 283.12 53.9971 283.76C55.1971 284.38 56.1071 285.3 56.7271 286.52L53.8471 288.2C53.3671 287.44 52.7771 286.88 52.0771 286.52C51.3971 286.16 50.6571 285.98 49.8571 285.98C48.9371 285.98 48.1071 286.18 47.3671 286.58C46.6271 286.98 46.0471 287.56 45.6271 288.32C45.2071 289.06 44.9971 289.95 44.9971 290.99C44.9971 292.03 45.2071 292.93 45.6271 293.69C46.0471 294.43 46.6271 295 47.3671 295.4C48.1071 295.8 48.9371 296 49.8571 296C50.6571 296 51.3971 295.82 52.0771 295.46C52.7771 295.1 53.3671 294.54 53.8471 293.78L56.7271 295.46C56.1071 296.66 55.1971 297.59 53.9971 298.25C52.8171 298.89 51.4471 299.21 49.8871 299.21ZM59.8223 299V276.74H63.5723V299H59.8223ZM75.2742 299.21C73.9142 299.21 72.7142 298.96 71.6742 298.46C70.6342 297.94 69.8242 297.16 69.2442 296.12C68.6642 295.06 68.3742 293.73 68.3742 292.13V282.98H72.1242V291.62C72.1242 293.06 72.4442 294.14 73.0842 294.86C73.7442 295.56 74.6742 295.91 75.8742 295.91C76.7542 295.91 77.5142 295.73 78.1542 295.37C78.8142 295.01 79.3242 294.47 79.6842 293.75C80.0642 293.03 80.2542 292.14 80.2542 291.08V282.98H84.0042V299H80.4342V294.68L81.0642 296C80.5242 297.04 79.7342 297.84 78.6942 298.4C77.6542 298.94 76.5142 299.21 75.2742 299.21ZM97.7941 299.21C96.4341 299.21 95.2241 298.91 94.1641 298.31C93.1041 297.71 92.2641 296.81 91.6441 295.61C91.0441 294.39 90.7441 292.85 90.7441 290.99C90.7441 289.11 91.0541 287.57 91.6741 286.37C92.3141 285.17 93.1641 284.28 94.2241 283.7C95.3041 283.1 96.4941 282.8 97.7941 282.8C99.3741 282.8 100.764 283.14 101.964 283.82C103.184 284.5 104.144 285.45 104.844 286.67C105.564 287.89 105.924 289.33 105.924 290.99C105.924 292.65 105.564 294.09 104.844 295.31C104.144 296.53 103.184 297.49 101.964 298.19C100.764 298.87 99.3741 299.21 97.7941 299.21ZM88.9141 299V276.74H92.6641V286.7L92.3641 290.96L92.4841 295.22V299H88.9141ZM97.3741 296C98.2741 296 99.0741 295.8 99.7741 295.4C100.494 295 101.064 294.42 101.484 293.66C101.904 292.9 102.114 292.01 102.114 290.99C102.114 289.95 101.904 289.06 101.484 288.32C101.064 287.56 100.494 286.98 99.7741 286.58C99.0741 286.18 98.2741 285.98 97.3741 285.98C96.4741 285.98 95.6641 286.18 94.9441 286.58C94.2241 286.98 93.6541 287.56 93.2341 288.32C92.8141 289.06 92.6041 289.95 92.6041 290.99C92.6041 292.01 92.8141 292.9 93.2341 293.66C93.6541 294.42 94.2241 295 94.9441 295.4C95.6641 295.8 96.4741 296 97.3741 296ZM137.992 282.8C139.272 282.8 140.402 283.05 141.382 283.55C142.382 284.05 143.162 284.82 143.722 285.86C144.282 286.88 144.562 288.2 144.562 289.82V299H140.812V290.3C140.812 288.88 140.502 287.82 139.882 287.12C139.262 286.42 138.372 286.07 137.212 286.07C136.392 286.07 135.662 286.25 135.022 286.61C134.402 286.97 133.912 287.5 133.552 288.2C133.212 288.9 133.042 289.79 133.042 290.87V299H129.292V290.3C129.292 288.88 128.982 287.82 128.362 287.12C127.742 286.42 126.852 286.07 125.692 286.07C124.872 286.07 124.142 286.25 123.502 286.61C122.882 286.97 122.392 287.5 122.032 288.2C121.692 288.9 121.522 289.79 121.522 290.87V299H117.772V282.98H121.342V287.24L120.712 285.98C121.252 284.94 122.032 284.15 123.052 283.61C124.092 283.07 125.272 282.8 126.592 282.8C128.092 282.8 129.392 283.17 130.492 283.91C131.612 284.65 132.352 285.77 132.712 287.27L131.242 286.76C131.762 285.56 132.622 284.6 133.822 283.88C135.022 283.16 136.412 282.8 137.992 282.8ZM159.224 299V295.76L159.014 295.07V289.4C159.014 288.3 158.684 287.45 158.024 286.85C157.364 286.23 156.364 285.92 155.024 285.92C154.124 285.92 153.234 286.06 152.354 286.34C151.494 286.62 150.764 287.01 150.164 287.51L148.694 284.78C149.554 284.12 150.574 283.63 151.754 283.31C152.954 282.97 154.194 282.8 155.474 282.8C157.794 282.8 159.584 283.36 160.844 284.48C162.124 285.58 162.764 287.29 162.764 289.61V299H159.224ZM154.184 299.21C152.984 299.21 151.934 299.01 151.034 298.61C150.134 298.19 149.434 297.62 148.934 296.9C148.454 296.16 148.214 295.33 148.214 294.41C148.214 293.51 148.424 292.7 148.844 291.98C149.284 291.26 149.994 290.69 150.974 290.27C151.954 289.85 153.254 289.64 154.874 289.64H159.524V292.13H155.144C153.864 292.13 153.004 292.34 152.564 292.76C152.124 293.16 151.904 293.66 151.904 294.26C151.904 294.94 152.174 295.48 152.714 295.88C153.254 296.28 154.004 296.48 154.964 296.48C155.884 296.48 156.704 296.27 157.424 295.85C158.164 295.43 158.694 294.81 159.014 293.99L159.644 296.24C159.284 297.18 158.634 297.91 157.694 298.43C156.774 298.95 155.604 299.21 154.184 299.21ZM176.666 282.8C177.946 282.8 179.086 283.05 180.086 283.55C181.106 284.05 181.906 284.82 182.486 285.86C183.066 286.88 183.356 288.2 183.356 289.82V299H179.606V290.3C179.606 288.88 179.266 287.82 178.586 287.12C177.926 286.42 176.996 286.07 175.796 286.07C174.916 286.07 174.136 286.25 173.456 286.61C172.776 286.97 172.246 287.51 171.866 288.23C171.506 288.93 171.326 289.82 171.326 290.9V299H167.576V282.98H171.146V287.3L170.516 285.98C171.076 284.96 171.886 284.18 172.946 283.64C174.026 283.08 175.266 282.8 176.666 282.8ZM197.983 299V295.76L197.773 295.07V289.4C197.773 288.3 197.443 287.45 196.783 286.85C196.123 286.23 195.123 285.92 193.783 285.92C192.883 285.92 191.993 286.06 191.113 286.34C190.253 286.62 189.523 287.01 188.923 287.51L187.453 284.78C188.313 284.12 189.333 283.63 190.513 283.31C191.713 282.97 192.953 282.8 194.233 282.8C196.553 282.8 198.343 283.36 199.603 284.48C200.883 285.58 201.523 287.29 201.523 289.61V299H197.983ZM192.943 299.21C191.743 299.21 190.693 299.01 189.793 298.61C188.893 298.19 188.193 297.62 187.693 296.9C187.213 296.16 186.973 295.33 186.973 294.41C186.973 293.51 187.183 292.7 187.603 291.98C188.043 291.26 188.753 290.69 189.733 290.27C190.713 289.85 192.013 289.64 193.633 289.64H198.283V292.13H193.903C192.623 292.13 191.763 292.34 191.323 292.76C190.883 293.16 190.663 293.66 190.663 294.26C190.663 294.94 190.933 295.48 191.473 295.88C192.013 296.28 192.763 296.48 193.723 296.48C194.643 296.48 195.463 296.27 196.183 295.85C196.923 295.43 197.453 294.81 197.773 293.99L198.403 296.24C198.043 297.18 197.393 297.91 196.453 298.43C195.533 298.95 194.363 299.21 192.943 299.21ZM213.625 305.03C212.145 305.03 210.695 304.83 209.275 304.43C207.875 304.05 206.725 303.49 205.825 302.75L207.505 299.93C208.205 300.51 209.085 300.97 210.145 301.31C211.225 301.67 212.315 301.85 213.415 301.85C215.175 301.85 216.465 301.44 217.285 300.62C218.105 299.82 218.515 298.61 218.515 296.99V294.14L218.815 290.51L218.695 286.88V282.98H222.265V296.57C222.265 299.47 221.525 301.6 220.045 302.96C218.565 304.34 216.425 305.03 213.625 305.03ZM213.145 298.28C211.625 298.28 210.245 297.96 209.005 297.32C207.785 296.66 206.815 295.75 206.095 294.59C205.395 293.43 205.045 292.07 205.045 290.51C205.045 288.97 205.395 287.62 206.095 286.46C206.815 285.3 207.785 284.4 209.005 283.76C210.245 283.12 211.625 282.8 213.145 282.8C214.505 282.8 215.725 283.07 216.805 283.61C217.885 284.15 218.745 284.99 219.385 286.13C220.045 287.27 220.375 288.73 220.375 290.51C220.375 292.29 220.045 293.76 219.385 294.92C218.745 296.06 217.885 296.91 216.805 297.47C215.725 298.01 214.505 298.28 213.145 298.28ZM213.715 295.1C214.655 295.1 215.495 294.91 216.235 294.53C216.975 294.13 217.545 293.59 217.945 292.91C218.365 292.21 218.575 291.41 218.575 290.51C218.575 289.61 218.365 288.82 217.945 288.14C217.545 287.44 216.975 286.91 216.235 286.55C215.495 286.17 214.655 285.98 213.715 285.98C212.775 285.98 211.925 286.17 211.165 286.55C210.425 286.91 209.845 287.44 209.425 288.14C209.025 288.82 208.825 289.61 208.825 290.51C208.825 291.41 209.025 292.21 209.425 292.91C209.845 293.59 210.425 294.13 211.165 294.53C211.925 294.91 212.775 295.1 213.715 295.1ZM234.725 299.21C232.945 299.21 231.385 298.86 230.045 298.16C228.725 297.44 227.695 296.46 226.955 295.22C226.235 293.98 225.875 292.57 225.875 290.99C225.875 289.39 226.225 287.98 226.925 286.76C227.645 285.52 228.625 284.55 229.865 283.85C231.125 283.15 232.555 282.8 234.155 282.8C235.715 282.8 237.105 283.14 238.325 283.82C239.545 284.5 240.505 285.46 241.205 286.7C241.905 287.94 242.255 289.4 242.255 291.08C242.255 291.24 242.245 291.42 242.225 291.62C242.225 291.82 242.215 292.01 242.195 292.19H228.845V289.7H240.215L238.745 290.48C238.765 289.56 238.575 288.75 238.175 288.05C237.775 287.35 237.225 286.8 236.525 286.4C235.845 286 235.055 285.8 234.155 285.8C233.235 285.8 232.425 286 231.725 286.4C231.045 286.8 230.505 287.36 230.105 288.08C229.725 288.78 229.535 289.61 229.535 290.57V291.17C229.535 292.13 229.755 292.98 230.195 293.72C230.635 294.46 231.255 295.03 232.055 295.43C232.855 295.83 233.775 296.03 234.815 296.03C235.715 296.03 236.525 295.89 237.245 295.61C237.965 295.33 238.605 294.89 239.165 294.29L241.175 296.6C240.455 297.44 239.545 298.09 238.445 298.55C237.365 298.99 236.125 299.21 234.725 299.21ZM266.077 282.8C267.357 282.8 268.487 283.05 269.467 283.55C270.467 284.05 271.247 284.82 271.807 285.86C272.367 286.88 272.647 288.2 272.647 289.82V299H268.897V290.3C268.897 288.88 268.587 287.82 267.967 287.12C267.347 286.42 266.457 286.07 265.297 286.07C264.477 286.07 263.747 286.25 263.107 286.61C262.487 286.97 261.997 287.5 261.637 288.2C261.297 288.9 261.127 289.79 261.127 290.87V299H257.377V290.3C257.377 288.88 257.067 287.82 256.447 287.12C255.827 286.42 254.937 286.07 253.777 286.07C252.957 286.07 252.227 286.25 251.587 286.61C250.967 286.97 250.477 287.5 250.117 288.2C249.777 288.9 249.607 289.79 249.607 290.87V299H245.857V282.98H249.427V287.24L248.797 285.98C249.337 284.94 250.117 284.15 251.137 283.61C252.177 283.07 253.357 282.8 254.677 282.8C256.177 282.8 257.477 283.17 258.577 283.91C259.697 284.65 260.437 285.77 260.797 287.27L259.327 286.76C259.847 285.56 260.707 284.6 261.907 283.88C263.107 283.16 264.497 282.8 266.077 282.8ZM284.999 299.21C283.219 299.21 281.659 298.86 280.319 298.16C278.999 297.44 277.969 296.46 277.229 295.22C276.509 293.98 276.149 292.57 276.149 290.99C276.149 289.39 276.499 287.98 277.199 286.76C277.919 285.52 278.899 284.55 280.139 283.85C281.399 283.15 282.829 282.8 284.429 282.8C285.989 282.8 287.379 283.14 288.599 283.82C289.819 284.5 290.779 285.46 291.479 286.7C292.179 287.94 292.529 289.4 292.529 291.08C292.529 291.24 292.519 291.42 292.499 291.62C292.499 291.82 292.489 292.01 292.469 292.19H279.119V289.7H290.489L289.019 290.48C289.039 289.56 288.849 288.75 288.449 288.05C288.049 287.35 287.499 286.8 286.799 286.4C286.119 286 285.329 285.8 284.429 285.8C283.509 285.8 282.699 286 281.999 286.4C281.319 286.8 280.779 287.36 280.379 288.08C279.999 288.78 279.809 289.61 279.809 290.57V291.17C279.809 292.13 280.029 292.98 280.469 293.72C280.909 294.46 281.529 295.03 282.329 295.43C283.129 295.83 284.049 296.03 285.089 296.03C285.989 296.03 286.799 295.89 287.519 295.61C288.239 295.33 288.879 294.89 289.439 294.29L291.449 296.6C290.729 297.44 289.819 298.09 288.719 298.55C287.639 298.99 286.399 299.21 284.999 299.21ZM305.221 282.8C306.501 282.8 307.641 283.05 308.641 283.55C309.661 284.05 310.461 284.82 311.041 285.86C311.621 286.88 311.911 288.2 311.911 289.82V299H308.161V290.3C308.161 288.88 307.821 287.82 307.141 287.12C306.481 286.42 305.551 286.07 304.351 286.07C303.471 286.07 302.691 286.25 302.011 286.61C301.331 286.97 300.801 287.51 300.421 288.23C300.061 288.93 299.881 289.82 299.881 290.9V299H296.131V282.98H299.701V287.3L299.071 285.98C299.631 284.96 300.441 284.18 301.501 283.64C302.581 283.08 303.821 282.8 305.221 282.8ZM322.698 299.21C320.938 299.21 319.578 298.76 318.618 297.86C317.658 296.94 317.178 295.59 317.178 293.81V279.44H320.928V293.72C320.928 294.48 321.118 295.07 321.498 295.49C321.898 295.91 322.448 296.12 323.148 296.12C323.988 296.12 324.688 295.9 325.248 295.46L326.298 298.13C325.858 298.49 325.318 298.76 324.678 298.94C324.038 299.12 323.378 299.21 322.698 299.21ZM314.538 286.1V283.1H325.218V286.1H314.538Z" fill="white"/>
</svg>
