<svg width="366" height="306" viewBox="0 0 366 306" fill="none" xmlns="http://www.w3.org/2000/svg">
<rect width="366" height="247" rx="8" fill="#000066"/>
<path d="M161.851 142.4L180.551 143.3L181.051 156.1L177.051 163.2L132.151 163.8L125.551 159.9L125.051 112L129.051 105.3L174.551 106.2L182.051 111.3L180.651 132.3H161.351L160.251 121.7L146.551 121.1L146.951 147.6L160.151 148.5L161.851 142.4ZM241.709 109.5L241.909 158.8L237.609 163.8L206.609 163.4L206.009 186.6L185.109 189.7L185.709 106.5L198.509 106.2L200.209 109.3L202.709 106.5L237.709 105.6L241.709 109.5ZM207.609 122.9L207.209 148.2L220.809 147.1V124.2L207.609 122.9Z" fill="#FF9434"/>
<path d="M93.2612 299.21C91.5812 299.21 90.0812 298.86 88.7612 298.16C87.4612 297.44 86.4412 296.46 85.7012 295.22C84.9612 293.98 84.5912 292.57 84.5912 290.99C84.5912 289.39 84.9612 287.98 85.7012 286.76C86.4412 285.52 87.4612 284.55 88.7612 283.85C90.0812 283.15 91.5812 282.8 93.2612 282.8C94.8212 282.8 96.1912 283.12 97.3712 283.76C98.5712 284.38 99.4812 285.3 100.101 286.52L97.2212 288.2C96.7412 287.44 96.1512 286.88 95.4512 286.52C94.7712 286.16 94.0312 285.98 93.2312 285.98C92.3112 285.98 91.4812 286.18 90.7412 286.58C90.0012 286.98 89.4212 287.56 89.0012 288.32C88.5812 289.06 88.3712 289.95 88.3712 290.99C88.3712 292.03 88.5812 292.93 89.0012 293.69C89.4212 294.43 90.0012 295 90.7412 295.4C91.4812 295.8 92.3112 296 93.2312 296C94.0312 296 94.7712 295.82 95.4512 295.46C96.1512 295.1 96.7412 294.54 97.2212 293.78L100.101 295.46C99.4812 296.66 98.5712 297.59 97.3712 298.25C96.1912 298.89 94.8212 299.21 93.2612 299.21ZM110.308 299.21C108.668 299.21 107.208 298.86 105.928 298.16C104.648 297.44 103.638 296.46 102.898 295.22C102.158 293.98 101.788 292.57 101.788 290.99C101.788 289.39 102.158 287.98 102.898 286.76C103.638 285.52 104.648 284.55 105.928 283.85C107.208 283.15 108.668 282.8 110.308 282.8C111.968 282.8 113.438 283.15 114.718 283.85C116.018 284.55 117.028 285.51 117.748 286.73C118.488 287.95 118.858 289.37 118.858 290.99C118.858 292.57 118.488 293.98 117.748 295.22C117.028 296.46 116.018 297.44 114.718 298.16C113.438 298.86 111.968 299.21 110.308 299.21ZM110.308 296C111.228 296 112.048 295.8 112.768 295.4C113.488 295 114.048 294.42 114.448 293.66C114.868 292.9 115.078 292.01 115.078 290.99C115.078 289.95 114.868 289.06 114.448 288.32C114.048 287.56 113.488 286.98 112.768 286.58C112.048 286.18 111.238 285.98 110.338 285.98C109.418 285.98 108.598 286.18 107.878 286.58C107.178 286.98 106.618 287.56 106.198 288.32C105.778 289.06 105.568 289.95 105.568 290.99C105.568 292.01 105.778 292.9 106.198 293.66C106.618 294.42 107.178 295 107.878 295.4C108.598 295.8 109.408 296 110.308 296ZM132.109 299V295.76L131.899 295.07V289.4C131.899 288.3 131.569 287.45 130.909 286.85C130.249 286.23 129.249 285.92 127.909 285.92C127.009 285.92 126.119 286.06 125.239 286.34C124.379 286.62 123.649 287.01 123.049 287.51L121.579 284.78C122.439 284.12 123.459 283.63 124.639 283.31C125.839 282.97 127.079 282.8 128.359 282.8C130.679 282.8 132.469 283.36 133.729 284.48C135.009 285.58 135.649 287.29 135.649 289.61V299H132.109ZM127.069 299.21C125.869 299.21 124.819 299.01 123.919 298.61C123.019 298.19 122.319 297.62 121.819 296.9C121.339 296.16 121.099 295.33 121.099 294.41C121.099 293.51 121.309 292.7 121.729 291.98C122.169 291.26 122.879 290.69 123.859 290.27C124.839 289.85 126.139 289.64 127.759 289.64H132.409V292.13H128.029C126.749 292.13 125.889 292.34 125.449 292.76C125.009 293.16 124.789 293.66 124.789 294.26C124.789 294.94 125.059 295.48 125.599 295.88C126.139 296.28 126.889 296.48 127.849 296.48C128.769 296.48 129.589 296.27 130.309 295.85C131.049 295.43 131.579 294.81 131.899 293.99L132.529 296.24C132.169 297.18 131.519 297.91 130.579 298.43C129.659 298.95 128.489 299.21 127.069 299.21ZM147.841 299.21C146.161 299.21 144.661 298.86 143.341 298.16C142.041 297.44 141.021 296.46 140.281 295.22C139.541 293.98 139.171 292.57 139.171 290.99C139.171 289.39 139.541 287.98 140.281 286.76C141.021 285.52 142.041 284.55 143.341 283.85C144.661 283.15 146.161 282.8 147.841 282.8C149.401 282.8 150.771 283.12 151.951 283.76C153.151 284.38 154.061 285.3 154.681 286.52L151.801 288.2C151.321 287.44 150.731 286.88 150.031 286.52C149.351 286.16 148.611 285.98 147.811 285.98C146.891 285.98 146.061 286.18 145.321 286.58C144.581 286.98 144.001 287.56 143.581 288.32C143.161 289.06 142.951 289.95 142.951 290.99C142.951 292.03 143.161 292.93 143.581 293.69C144.001 294.43 144.581 295 145.321 295.4C146.061 295.8 146.891 296 147.811 296C148.611 296 149.351 295.82 150.031 295.46C150.731 295.1 151.321 294.54 151.801 293.78L154.681 295.46C154.061 296.66 153.151 297.59 151.951 298.25C150.771 298.89 149.401 299.21 147.841 299.21ZM166.866 282.8C168.146 282.8 169.286 283.05 170.286 283.55C171.306 284.05 172.106 284.82 172.686 285.86C173.266 286.88 173.556 288.2 173.556 289.82V299H169.806V290.3C169.806 288.88 169.466 287.82 168.786 287.12C168.126 286.42 167.196 286.07 165.996 286.07C165.116 286.07 164.336 286.25 163.656 286.61C162.976 286.97 162.446 287.51 162.066 288.23C161.706 288.93 161.526 289.82 161.526 290.9V299H157.776V276.74H161.526V287.3L160.716 285.98C161.276 284.96 162.086 284.18 163.146 283.64C164.226 283.08 165.466 282.8 166.866 282.8ZM195.485 299.21C194.185 299.21 192.995 298.91 191.915 298.31C190.855 297.71 190.005 296.81 189.365 295.61C188.745 294.39 188.435 292.85 188.435 290.99C188.435 289.11 188.735 287.57 189.335 286.37C189.955 285.17 190.795 284.28 191.855 283.7C192.915 283.1 194.125 282.8 195.485 282.8C197.065 282.8 198.455 283.14 199.655 283.82C200.875 284.5 201.835 285.45 202.535 286.67C203.255 287.89 203.615 289.33 203.615 290.99C203.615 292.65 203.255 294.1 202.535 295.34C201.835 296.56 200.875 297.51 199.655 298.19C198.455 298.87 197.065 299.21 195.485 299.21ZM186.605 304.82V282.98H190.175V286.76L190.055 291.02L190.355 295.28V304.82H186.605ZM195.065 296C195.965 296 196.765 295.8 197.465 295.4C198.185 295 198.755 294.42 199.175 293.66C199.595 292.9 199.805 292.01 199.805 290.99C199.805 289.95 199.595 289.06 199.175 288.32C198.755 287.56 198.185 286.98 197.465 286.58C196.765 286.18 195.965 285.98 195.065 285.98C194.165 285.98 193.355 286.18 192.635 286.58C191.915 286.98 191.345 287.56 190.925 288.32C190.505 289.06 190.295 289.95 190.295 290.99C190.295 292.01 190.505 292.9 190.925 293.66C191.345 294.42 191.915 295 192.635 295.4C193.355 295.8 194.165 296 195.065 296ZM207.171 299V282.98H210.741V287.39L210.321 286.1C210.801 285.02 211.551 284.2 212.571 283.64C213.611 283.08 214.901 282.8 216.441 282.8V286.37C216.281 286.33 216.131 286.31 215.991 286.31C215.851 286.29 215.711 286.28 215.571 286.28C214.151 286.28 213.021 286.7 212.181 287.54C211.341 288.36 210.921 289.59 210.921 291.23V299H207.171ZM226.676 299.21C225.036 299.21 223.576 298.86 222.296 298.16C221.016 297.44 220.006 296.46 219.266 295.22C218.526 293.98 218.156 292.57 218.156 290.99C218.156 289.39 218.526 287.98 219.266 286.76C220.006 285.52 221.016 284.55 222.296 283.85C223.576 283.15 225.036 282.8 226.676 282.8C228.336 282.8 229.806 283.15 231.086 283.85C232.386 284.55 233.396 285.51 234.116 286.73C234.856 287.95 235.226 289.37 235.226 290.99C235.226 292.57 234.856 293.98 234.116 295.22C233.396 296.46 232.386 297.44 231.086 298.16C229.806 298.86 228.336 299.21 226.676 299.21ZM226.676 296C227.596 296 228.416 295.8 229.136 295.4C229.856 295 230.416 294.42 230.816 293.66C231.236 292.9 231.446 292.01 231.446 290.99C231.446 289.95 231.236 289.06 230.816 288.32C230.416 287.56 229.856 286.98 229.136 286.58C228.416 286.18 227.606 285.98 226.706 285.98C225.786 285.98 224.966 286.18 224.246 286.58C223.546 286.98 222.986 287.56 222.566 288.32C222.146 289.06 221.936 289.95 221.936 290.99C221.936 292.01 222.146 292.9 222.566 293.66C222.986 294.42 223.546 295 224.246 295.4C224.966 295.8 225.776 296 226.676 296ZM239.322 299V282.08C239.322 280.4 239.812 279.06 240.792 278.06C241.792 277.04 243.212 276.53 245.052 276.53C245.712 276.53 246.332 276.6 246.912 276.74C247.512 276.88 248.012 277.1 248.412 277.4L247.392 280.22C247.112 280 246.792 279.84 246.432 279.74C246.072 279.62 245.702 279.56 245.322 279.56C244.542 279.56 243.952 279.78 243.552 280.22C243.152 280.64 242.952 281.28 242.952 282.14V283.94L243.072 285.62V299H239.322ZM236.682 286.1V283.1H247.362V286.1H236.682ZM250.002 299V282.98H253.752V299H250.002ZM251.892 280.34C251.192 280.34 250.612 280.12 250.152 279.68C249.712 279.24 249.492 278.71 249.492 278.09C249.492 277.45 249.712 276.92 250.152 276.5C250.612 276.06 251.192 275.84 251.892 275.84C252.592 275.84 253.162 276.05 253.602 276.47C254.062 276.87 254.292 277.38 254.292 278C254.292 278.66 254.072 279.22 253.632 279.68C253.192 280.12 252.612 280.34 251.892 280.34ZM258.675 299V276.74H262.425V299H258.675ZM274.877 299.21C273.097 299.21 271.537 298.86 270.197 298.16C268.877 297.44 267.847 296.46 267.107 295.22C266.387 293.98 266.027 292.57 266.027 290.99C266.027 289.39 266.377 287.98 267.077 286.76C267.797 285.52 268.777 284.55 270.017 283.85C271.277 283.15 272.707 282.8 274.307 282.8C275.867 282.8 277.257 283.14 278.477 283.82C279.697 284.5 280.657 285.46 281.357 286.7C282.057 287.94 282.407 289.4 282.407 291.08C282.407 291.24 282.397 291.42 282.377 291.62C282.377 291.82 282.367 292.01 282.347 292.19H268.997V289.7H280.367L278.897 290.48C278.917 289.56 278.727 288.75 278.327 288.05C277.927 287.35 277.377 286.8 276.677 286.4C275.997 286 275.207 285.8 274.307 285.8C273.387 285.8 272.577 286 271.877 286.4C271.197 286.8 270.657 287.36 270.257 288.08C269.877 288.78 269.687 289.61 269.687 290.57V291.17C269.687 292.13 269.907 292.98 270.347 293.72C270.787 294.46 271.407 295.03 272.207 295.43C273.007 295.83 273.927 296.03 274.967 296.03C275.867 296.03 276.677 295.89 277.397 295.61C278.117 295.33 278.757 294.89 279.317 294.29L281.327 296.6C280.607 297.44 279.697 298.09 278.597 298.55C277.517 298.99 276.277 299.21 274.877 299.21Z" fill="white"/>
</svg>
