<svg width="1284" height="106" viewBox="0 0 1284 106" fill="none" xmlns="http://www.w3.org/2000/svg">
<path d="M52.3824 21.5L58.5824 29.3L57.3824 72.2L50.1824 80L18.3824 79.6L15.8824 76.8L13.6824 80L0.982422 79.9L1.58242 -1.19209e-06L21.8824 1.1L22.4824 23.8L52.3824 21.5ZM37.2824 62.5L36.0824 40.4L22.7824 40.9L22.5824 62.9L37.2824 62.5ZM98.627 62.1L116.927 63.3L117.927 70.5L112.727 79.3L68.727 79.9L62.127 76L61.627 27.9L67.827 21.4L111.127 22.3L118.627 27.4L116.827 54.9L110.927 58.9L83.027 58.1L82.727 64.8L96.927 65.7L98.627 62.1ZM97.327 47.9L96.727 37.8L82.327 37.2L82.427 46.6L97.327 47.9ZM173.686 21.4L177.686 25.3L177.486 77.2L172.486 79.9L156.786 79.6V39.4L142.786 39.8L143.086 78.4L121.986 79.8L121.686 22.6L134.486 22.3L136.286 25.3L138.786 22.9L173.686 21.4ZM217.67 62.1L235.97 63.3L236.97 70.5L231.77 79.3L187.77 79.9L181.17 76L180.67 27.9L186.87 21.4L230.17 22.3L237.67 27.4L235.87 54.9L229.97 58.9L202.07 58.1L201.77 64.8L215.97 65.7L217.67 62.1ZM216.37 47.9L215.77 37.8L201.37 37.2L201.47 46.6L216.37 47.9ZM286.429 0.0999975L292.529 5.8L292.229 14.4L290.329 18.6L274.529 18.3L273.829 14.7L264.529 15.3L264.929 22L281.429 22.7L281.729 35.4L278.729 37.7L264.929 37.5L265.029 79.3L245.129 80.2L244.729 36.4H240.829L240.729 24.9L242.829 21.9L245.529 21.8L245.729 6.1L250.029 1.6L286.429 0.0999975ZM294.537 79.8L295.037 21.5H316.737L314.037 78.8L294.537 79.8ZM311.337 19.5L300.437 19.7L295.437 16.3L295.937 0.0999975H314.837L317.337 2.8L315.137 16.4L311.337 19.5ZM372.718 59.3V71.3L367.618 79.4L327.618 80L323.818 73.6L324.218 37.1L320.418 36.2L320.318 24.4L322.518 22.1L325.418 21.9L326.518 7.5L342.018 7.79999L344.418 10.4L344.318 21.9L366.018 22.4L368.518 25.9L368.318 37.5L365.718 39.4L344.618 38.8L343.718 63.8L353.218 64.2L355.518 54.9L370.218 55.8L372.718 59.3ZM427.187 45.6L431.587 54.3L430.787 75.3L425.087 79.5H424.487L379.987 80L375.787 75.4L377.187 59L393.887 59.1L395.287 64.2H411.387L411.787 56.7L381.087 54.1L376.387 50.3L376.887 26.4L380.987 22.8L422.887 21.5L430.187 24.1L431.087 38.1L427.287 40.9L413.487 41.4L411.187 35.9L397.387 36.5L396.287 43.1L427.187 45.6ZM516.733 22.3L521.933 28.8L521.433 72.5L517.533 79.6L472.733 79.9L466.033 76.4L465.533 28.1L469.533 21.4L516.733 22.3ZM500.733 38.1L486.733 37.5L487.133 64L500.433 65.1L500.733 38.1ZM570.608 0.0999975L576.708 5.8L576.408 14.4L574.508 18.6L558.708 18.3L558.008 14.7L548.708 15.3L549.108 22L565.608 22.7L565.908 35.4L562.908 37.7L549.108 37.5L549.208 79.3L529.308 80.2L528.908 36.4H525.008L524.908 24.9L527.008 21.9L529.708 21.8L529.908 6.1L534.208 1.6L570.608 0.0999975ZM650.55 22.2L667.05 21.4L666.75 79.8H653.45L651.35 76.9L649.45 79.8L617.75 80L611.15 76.1L610.65 21.4L626.55 22L630.75 27.2L633.45 62.8L645.25 64.3L646.75 27.1L650.55 22.2ZM721.425 45.6L725.825 54.3L725.025 75.3L719.325 79.5H718.725L674.225 80L670.025 75.4L671.425 59L688.125 59.1L689.525 64.2H705.625L706.025 56.7L675.325 54.1L670.625 50.3L671.125 26.4L675.225 22.8L717.125 21.5L724.425 24.1L725.325 38.1L721.525 40.9L707.725 41.4L705.425 35.9L691.625 36.5L690.525 43.1L721.425 45.6ZM728.814 79.8L729.314 21.5H751.014L748.314 78.8L728.814 79.8ZM745.614 19.5L734.714 19.7L729.714 16.3L730.214 0.0999975H749.114L751.614 2.8L749.414 16.4L745.614 19.5ZM806.596 21.4L810.596 25.3L810.396 77.2L805.396 79.9L789.696 79.6V39.4L775.696 39.8L775.996 78.4L754.896 79.8L754.596 22.6L767.396 22.3L769.196 25.3L771.696 22.9L806.596 21.4ZM857.68 21.4L870.38 21.1L869.98 100L863.58 105.5L819.38 104.6L814.48 96.9L815.18 86.9L817.38 83.2L833.68 82.9L835.68 89.5L849.38 88.4L849.08 78.5L820.68 79.9L814.98 74.3L813.58 29.9L820.68 21.5L853.18 21.7L855.38 24.7L857.68 21.4ZM834.18 39.5L834.68 61.9L848.78 61.2L848.98 38.6L834.18 39.5Z" fill="white"/>
<path d="M955.8 45.6L960.2 54.3L959.4 75.3L953.7 79.5H953.1L908.6 80L904.4 75.4L905.8 59L922.5 59.1L923.9 64.2H940L940.4 56.7L909.7 54.1L905 50.3L905.5 26.4L909.6 22.8L951.5 21.5L958.8 24.1L959.7 38.1L955.9 40.9L942.1 41.4L939.8 35.9L926 36.5L924.9 43.1L955.8 45.6ZM1019.79 25.5L1019.99 74.8L1015.69 79.8L984.689 79.4L984.089 102.6L963.189 105.7L963.789 22.5L976.589 22.2L978.289 25.3L980.789 22.5L1015.79 21.6L1019.79 25.5ZM985.689 38.9L985.289 64.2L998.889 63.1V40.2L985.689 38.9ZM1024.03 79.8L1024.53 21.5H1046.23L1043.53 78.8L1024.03 79.8ZM1040.83 19.5L1029.93 19.7L1024.93 16.3L1025.43 0.0999975H1044.33L1046.83 2.8L1044.63 16.4L1040.83 19.5ZM1092.61 21.2L1113.21 26.4L1097.81 75.7L1093.31 79.7H1070.41L1066.41 75.8L1049.81 24.7L1070.81 21L1082.01 56.7L1092.61 21.2ZM1153.22 62.1L1171.52 63.3L1172.52 70.5L1167.32 79.3L1123.32 79.9L1116.72 76L1116.22 27.9L1122.42 21.4L1165.72 22.3L1173.22 27.4L1171.42 54.9L1165.52 58.9L1137.62 58.1L1137.32 64.8L1151.52 65.7L1153.22 62.1ZM1151.92 47.9L1151.32 37.8L1136.92 37.2L1137.02 46.6L1151.92 47.9ZM1226.7 45.6L1231.1 54.3L1230.3 75.3L1224.6 79.5H1224L1179.5 80L1175.3 75.4L1176.7 59L1193.4 59.1L1194.8 64.2H1210.9L1211.3 56.7L1180.6 54.1L1175.9 50.3L1176.4 26.4L1180.5 22.8L1222.4 21.5L1229.7 24.1L1230.6 38.1L1226.8 40.9L1213 41.4L1210.7 35.9L1196.9 36.5L1195.8 43.1L1226.7 45.6ZM1251.96 60.2L1257.06 63.6L1256.46 79.9H1237.66L1235.06 77.1L1237.36 63.5L1241.06 60.5L1251.96 60.2ZM1277.94 60.2L1283.04 63.6L1282.44 79.9H1263.64L1261.04 77.1L1263.34 63.5L1267.04 60.5L1277.94 60.2Z" fill="#FE9850"/>
</svg>
