<svg width="366" height="306" viewBox="0 0 366 306" fill="none" xmlns="http://www.w3.org/2000/svg">
<rect width="366" height="247" rx="8" fill="#000066"/>
<path d="M181.26 81.5L181.46 130.8L177.16 135.8L146.16 135.4L145.56 158.6L124.66 161.7L125.26 78.5L138.06 78.2L139.76 81.3L142.26 78.5L177.26 77.6L181.26 81.5ZM147.16 94.9L146.76 120.2L160.36 119.1V96.2L147.16 94.9ZM242.1 81.5L242.3 130.8L238 135.8L207 135.4L206.4 158.6L185.5 161.7L186.1 78.5L198.9 78.2L200.6 81.3L203.1 78.5L238.1 77.6L242.1 81.5ZM208 94.9L207.6 120.2L221.2 119.1V96.2L208 94.9Z" fill="#FF9434"/>
<path d="M92.8263 299.21C91.5263 299.21 90.3363 298.91 89.2563 298.31C88.1963 297.71 87.3463 296.81 86.7063 295.61C86.0863 294.39 85.7763 292.85 85.7763 290.99C85.7763 289.11 86.0763 287.57 86.6763 286.37C87.2963 285.17 88.1363 284.28 89.1963 283.7C90.2563 283.1 91.4663 282.8 92.8263 282.8C94.4063 282.8 95.7963 283.14 96.9963 283.82C98.2163 284.5 99.1763 285.45 99.8763 286.67C100.596 287.89 100.956 289.33 100.956 290.99C100.956 292.65 100.596 294.1 99.8763 295.34C99.1763 296.56 98.2163 297.51 96.9963 298.19C95.7963 298.87 94.4063 299.21 92.8263 299.21ZM83.9463 304.82V282.98H87.5163V286.76L87.3963 291.02L87.6963 295.28V304.82H83.9463ZM92.4063 296C93.3063 296 94.1063 295.8 94.8063 295.4C95.5263 295 96.0963 294.42 96.5163 293.66C96.9363 292.9 97.1463 292.01 97.1463 290.99C97.1463 289.95 96.9363 289.06 96.5163 288.32C96.0963 287.56 95.5263 286.98 94.8063 286.58C94.1063 286.18 93.3063 285.98 92.4063 285.98C91.5063 285.98 90.6963 286.18 89.9763 286.58C89.2563 286.98 88.6863 287.56 88.2663 288.32C87.8463 289.06 87.6363 289.95 87.6363 290.99C87.6363 292.01 87.8463 292.9 88.2663 293.66C88.6863 294.42 89.2563 295 89.9763 295.4C90.6963 295.8 91.5063 296 92.4063 296ZM104.513 299V276.74H108.263V299H104.513ZM123.055 299V295.76L122.845 295.07V289.4C122.845 288.3 122.515 287.45 121.855 286.85C121.195 286.23 120.195 285.92 118.855 285.92C117.955 285.92 117.065 286.06 116.185 286.34C115.325 286.62 114.595 287.01 113.995 287.51L112.525 284.78C113.385 284.12 114.405 283.63 115.585 283.31C116.785 282.97 118.025 282.8 119.305 282.8C121.625 282.8 123.415 283.36 124.675 284.48C125.955 285.58 126.595 287.29 126.595 289.61V299H123.055ZM118.015 299.21C116.815 299.21 115.765 299.01 114.865 298.61C113.965 298.19 113.265 297.62 112.765 296.9C112.285 296.16 112.045 295.33 112.045 294.41C112.045 293.51 112.255 292.7 112.675 291.98C113.115 291.26 113.825 290.69 114.805 290.27C115.785 289.85 117.085 289.64 118.705 289.64H123.355V292.13H118.975C117.695 292.13 116.835 292.34 116.395 292.76C115.955 293.16 115.735 293.66 115.735 294.26C115.735 294.94 116.005 295.48 116.545 295.88C117.085 296.28 117.835 296.48 118.795 296.48C119.715 296.48 120.535 296.27 121.255 295.85C121.995 295.43 122.525 294.81 122.845 293.99L123.475 296.24C123.115 297.18 122.465 297.91 121.525 298.43C120.605 298.95 119.435 299.21 118.015 299.21ZM132.434 305.03C131.654 305.03 130.874 304.9 130.094 304.64C129.314 304.38 128.664 304.02 128.144 303.56L129.644 300.8C130.024 301.14 130.454 301.41 130.934 301.61C131.414 301.81 131.904 301.91 132.404 301.91C133.084 301.91 133.634 301.74 134.054 301.4C134.474 301.06 134.864 300.49 135.224 299.69L136.154 297.59L136.454 297.14L142.514 282.98H146.114L138.614 300.29C138.114 301.49 137.554 302.44 136.934 303.14C136.334 303.84 135.654 304.33 134.894 304.61C134.154 304.89 133.334 305.03 132.434 305.03ZM135.734 299.57L128.504 282.98H132.404L138.284 296.81L135.734 299.57ZM155.549 299.21C153.769 299.21 152.209 298.86 150.869 298.16C149.549 297.44 148.519 296.46 147.779 295.22C147.059 293.98 146.699 292.57 146.699 290.99C146.699 289.39 147.049 287.98 147.749 286.76C148.469 285.52 149.449 284.55 150.689 283.85C151.949 283.15 153.379 282.8 154.979 282.8C156.539 282.8 157.929 283.14 159.149 283.82C160.369 284.5 161.329 285.46 162.029 286.7C162.729 287.94 163.079 289.4 163.079 291.08C163.079 291.24 163.069 291.42 163.049 291.62C163.049 291.82 163.039 292.01 163.019 292.19H149.669V289.7H161.039L159.569 290.48C159.589 289.56 159.399 288.75 158.999 288.05C158.599 287.35 158.049 286.8 157.349 286.4C156.669 286 155.879 285.8 154.979 285.8C154.059 285.8 153.249 286 152.549 286.4C151.869 286.8 151.329 287.36 150.929 288.08C150.549 288.78 150.359 289.61 150.359 290.57V291.17C150.359 292.13 150.579 292.98 151.019 293.72C151.459 294.46 152.079 295.03 152.879 295.43C153.679 295.83 154.599 296.03 155.639 296.03C156.539 296.03 157.349 295.89 158.069 295.61C158.789 295.33 159.429 294.89 159.989 294.29L161.999 296.6C161.279 297.44 160.369 298.09 159.269 298.55C158.189 298.99 156.949 299.21 155.549 299.21ZM166.681 299V282.98H170.251V287.39L169.831 286.1C170.311 285.02 171.061 284.2 172.081 283.64C173.121 283.08 174.411 282.8 175.951 282.8V286.37C175.791 286.33 175.641 286.31 175.501 286.31C175.361 286.29 175.221 286.28 175.081 286.28C173.661 286.28 172.531 286.7 171.691 287.54C170.851 288.36 170.431 289.59 170.431 291.23V299H166.681ZM196.449 299.21C195.149 299.21 193.959 298.91 192.879 298.31C191.819 297.71 190.969 296.81 190.329 295.61C189.709 294.39 189.399 292.85 189.399 290.99C189.399 289.11 189.699 287.57 190.299 286.37C190.919 285.17 191.759 284.28 192.819 283.7C193.879 283.1 195.089 282.8 196.449 282.8C198.029 282.8 199.419 283.14 200.619 283.82C201.839 284.5 202.799 285.45 203.499 286.67C204.219 287.89 204.579 289.33 204.579 290.99C204.579 292.65 204.219 294.1 203.499 295.34C202.799 296.56 201.839 297.51 200.619 298.19C199.419 298.87 198.029 299.21 196.449 299.21ZM187.569 304.82V282.98H191.139V286.76L191.019 291.02L191.319 295.28V304.82H187.569ZM196.029 296C196.929 296 197.729 295.8 198.429 295.4C199.149 295 199.719 294.42 200.139 293.66C200.559 292.9 200.769 292.01 200.769 290.99C200.769 289.95 200.559 289.06 200.139 288.32C199.719 287.56 199.149 286.98 198.429 286.58C197.729 286.18 196.929 285.98 196.029 285.98C195.129 285.98 194.319 286.18 193.599 286.58C192.879 286.98 192.309 287.56 191.889 288.32C191.469 289.06 191.259 289.95 191.259 290.99C191.259 292.01 191.469 292.9 191.889 293.66C192.309 294.42 192.879 295 193.599 295.4C194.319 295.8 195.129 296 196.029 296ZM208.136 299V282.98H211.706V287.39L211.286 286.1C211.766 285.02 212.516 284.2 213.536 283.64C214.576 283.08 215.866 282.8 217.406 282.8V286.37C217.246 286.33 217.096 286.31 216.956 286.31C216.816 286.29 216.676 286.28 216.536 286.28C215.116 286.28 213.986 286.7 213.146 287.54C212.306 288.36 211.886 289.59 211.886 291.23V299H208.136ZM227.64 299.21C226 299.21 224.54 298.86 223.26 298.16C221.98 297.44 220.97 296.46 220.23 295.22C219.49 293.98 219.12 292.57 219.12 290.99C219.12 289.39 219.49 287.98 220.23 286.76C220.97 285.52 221.98 284.55 223.26 283.85C224.54 283.15 226 282.8 227.64 282.8C229.3 282.8 230.77 283.15 232.05 283.85C233.35 284.55 234.36 285.51 235.08 286.73C235.82 287.95 236.19 289.37 236.19 290.99C236.19 292.57 235.82 293.98 235.08 295.22C234.36 296.46 233.35 297.44 232.05 298.16C230.77 298.86 229.3 299.21 227.64 299.21ZM227.64 296C228.56 296 229.38 295.8 230.1 295.4C230.82 295 231.38 294.42 231.78 293.66C232.2 292.9 232.41 292.01 232.41 290.99C232.41 289.95 232.2 289.06 231.78 288.32C231.38 287.56 230.82 286.98 230.1 286.58C229.38 286.18 228.57 285.98 227.67 285.98C226.75 285.98 225.93 286.18 225.21 286.58C224.51 286.98 223.95 287.56 223.53 288.32C223.11 289.06 222.9 289.95 222.9 290.99C222.9 292.01 223.11 292.9 223.53 293.66C223.95 294.42 224.51 295 225.21 295.4C225.93 295.8 226.74 296 227.64 296ZM240.286 299V282.08C240.286 280.4 240.776 279.06 241.756 278.06C242.756 277.04 244.176 276.53 246.016 276.53C246.676 276.53 247.296 276.6 247.876 276.74C248.476 276.88 248.976 277.1 249.376 277.4L248.356 280.22C248.076 280 247.756 279.84 247.396 279.74C247.036 279.62 246.666 279.56 246.286 279.56C245.506 279.56 244.916 279.78 244.516 280.22C244.116 280.64 243.916 281.28 243.916 282.14V283.94L244.036 285.62V299H240.286ZM237.646 286.1V283.1H248.326V286.1H237.646ZM250.966 299V282.98H254.716V299H250.966ZM252.856 280.34C252.156 280.34 251.576 280.12 251.116 279.68C250.676 279.24 250.456 278.71 250.456 278.09C250.456 277.45 250.676 276.92 251.116 276.5C251.576 276.06 252.156 275.84 252.856 275.84C253.556 275.84 254.126 276.05 254.566 276.47C255.026 276.87 255.256 277.38 255.256 278C255.256 278.66 255.036 279.22 254.596 279.68C254.156 280.12 253.576 280.34 252.856 280.34ZM259.64 299V276.74H263.39V299H259.64ZM275.842 299.21C274.062 299.21 272.502 298.86 271.162 298.16C269.842 297.44 268.812 296.46 268.072 295.22C267.352 293.98 266.992 292.57 266.992 290.99C266.992 289.39 267.342 287.98 268.042 286.76C268.762 285.52 269.742 284.55 270.982 283.85C272.242 283.15 273.672 282.8 275.272 282.8C276.832 282.8 278.222 283.14 279.442 283.82C280.662 284.5 281.622 285.46 282.322 286.7C283.022 287.94 283.372 289.4 283.372 291.08C283.372 291.24 283.362 291.42 283.342 291.62C283.342 291.82 283.332 292.01 283.312 292.19H269.962V289.7H281.332L279.862 290.48C279.882 289.56 279.692 288.75 279.292 288.05C278.892 287.35 278.342 286.8 277.642 286.4C276.962 286 276.172 285.8 275.272 285.8C274.352 285.8 273.542 286 272.842 286.4C272.162 286.8 271.622 287.36 271.222 288.08C270.842 288.78 270.652 289.61 270.652 290.57V291.17C270.652 292.13 270.872 292.98 271.312 293.72C271.752 294.46 272.372 295.03 273.172 295.43C273.972 295.83 274.892 296.03 275.932 296.03C276.832 296.03 277.642 295.89 278.362 295.61C279.082 295.33 279.722 294.89 280.282 294.29L282.292 296.6C281.572 297.44 280.662 298.09 279.562 298.55C278.482 298.99 277.242 299.21 275.842 299.21Z" fill="white"/>
</svg>
