<svg width="710" height="300" viewBox="0 0 710 300" fill="none" xmlns="http://www.w3.org/2000/svg">
<path d="M170.145 166.2L171.545 275L144.145 275.2L139.945 268.2L135.345 275L72.1445 274.4L57.1445 263.4L60.7445 211.4L72.3445 203.4L128.345 202.4L128.945 188.8L100.545 186.8L97.1445 194.2L60.5445 191.8L58.5445 177.4L68.9445 159.8L156.945 158.6L170.145 166.2ZM129.745 243.8L129.545 225.4L99.7445 225.8L100.945 242.6L129.745 243.8ZM280.452 158.2L292.852 173.8L291.452 274.6L250.052 273.8L248.452 196L221.252 197.8L222.452 272.4L178.252 275.2L177.652 115.2L219.452 118.4L220.652 161.6L280.452 158.2ZM372.941 239.2L409.541 241.6L411.541 256L401.141 273.6L313.141 274.8L299.941 267L298.941 170.8L311.341 157.8L397.941 159.6L412.941 169.8L409.341 224.8L397.541 232.8L341.741 231.2L341.141 244.6L369.541 246.4L372.941 239.2ZM370.341 210.8L369.141 190.6L340.341 189.4L340.541 208.2L370.341 210.8ZM530.105 166.2L531.505 275L504.105 275.2L499.905 268.2L495.305 275L432.105 274.4L417.105 263.4L420.705 211.4L432.305 203.4L488.305 202.4L488.905 188.8L460.505 186.8L457.105 194.2L420.505 191.8L418.505 177.4L428.905 159.8L516.905 158.6L530.105 166.2ZM489.705 243.8L489.505 225.4L459.705 225.8L460.905 242.6L489.705 243.8ZM651.613 115L652.813 274.8L627.413 275L623.013 268.6L618.013 274.2L554.413 275L540.013 259.4L537.613 173.6L550.013 158L609.813 162.6L611.013 117.2L651.613 115ZM609.613 240.8L609.213 196.8L582.613 195.8L580.213 240L609.613 240.8Z" fill="white"/>
<path d="M110.416 48.4L123.116 48.1L122.716 127L116.316 132.5L72.1164 131.6L67.2164 123.9L67.9164 113.9L70.1164 110.2L86.4164 109.9L88.4164 116.5L102.116 115.4L101.816 105.5L73.4164 106.9L67.7164 101.3L66.3164 56.9L73.4164 48.5L105.916 48.7L108.116 51.7L110.416 48.4ZM86.9164 66.5L87.4164 88.9L101.516 88.2L101.716 65.6L86.9164 66.5ZM163.18 89.1L181.48 90.3L182.48 97.5L177.28 106.3L133.28 106.9L126.68 103L126.18 54.9L132.38 48.4L175.68 49.3L183.18 54.4L181.38 81.9L175.48 85.9L147.58 85.1L147.28 91.8L161.48 92.7L163.18 89.1ZM161.88 74.9L161.28 64.8L146.88 64.2L146.98 73.6L161.88 74.9ZM238.638 86.3V98.3L233.538 106.4L193.538 107L189.738 100.6L190.138 64.1L186.338 63.2L186.238 51.4L188.438 49.1L191.338 48.9L192.438 34.5L207.938 34.8L210.338 37.4L210.238 48.9L231.938 49.4L234.438 52.9L234.238 64.5L231.638 66.4L210.538 65.8L209.638 90.8L219.138 91.2L221.438 81.9L236.138 82.8L238.638 86.3Z" fill="#FF9434"/>
</svg>
