<svg width="604" height="306" viewBox="0 0 604 306" fill="none" xmlns="http://www.w3.org/2000/svg">
<path d="M46.1 48.4L58.8 48.1L58.4 127L52 132.5L7.8 131.6L2.9 123.9L3.6 113.9L5.8 110.2L22.1 109.9L24.1 116.5L37.8 115.4L37.5 105.5L9.1 106.9L3.4 101.3L2 56.9L9.1 48.5L41.6 48.7L43.8 51.7L46.1 48.4ZM22.6 66.5L23.1 88.9L37.2 88.2L37.4 65.6L22.6 66.5ZM98.8633 89.1L117.163 90.3L118.163 97.5L112.963 106.3L68.9633 106.9L62.3633 103L61.8633 54.9L68.0633 48.4L111.363 49.3L118.863 54.4L117.063 81.9L111.163 85.9L83.2633 85.1L82.9633 91.8L97.1633 92.7L98.8633 89.1ZM97.5633 74.9L96.9633 64.8L82.5633 64.2L82.6633 73.6L97.5633 74.9ZM174.322 86.3V98.3L169.222 106.4L129.222 107L125.422 100.6L125.822 64.1L122.022 63.2L121.922 51.4L124.122 49.1L127.022 48.9L128.122 34.5L143.622 34.8L146.022 37.4L145.922 48.9L167.622 49.4L170.122 52.9L169.922 64.5L167.322 66.4L146.222 65.8L145.322 90.8L154.822 91.2L157.122 81.9L171.822 82.8L174.322 86.3Z" fill="#FF9434"/>
<path d="M117 172.2L118.4 281L91 281.2L86.8 274.2L82.2 281L19 280.4L4 269.4L7.6 217.4L19.2 209.4L75.2 208.4L75.8 194.8L47.4 192.8L44 200.2L7.4 197.8L5.4 183.4L15.8 165.8L103.8 164.6L117 172.2ZM76.6 249.8L76.4 231.4L46.6 231.8L47.8 248.6L76.6 249.8ZM227.308 164.2L239.708 179.8L238.308 280.6L196.908 279.8L195.308 202L168.108 203.8L169.308 278.4L125.108 281.2L124.508 121.2L166.308 124.4L167.508 167.6L227.308 164.2ZM319.797 245.2L356.397 247.6L358.397 262L347.997 279.6L259.997 280.8L246.797 273L245.797 176.8L258.197 163.8L344.797 165.6L359.797 175.8L356.197 230.8L344.397 238.8L288.597 237.2L287.997 250.6L316.397 252.4L319.797 245.2ZM317.197 216.8L315.997 196.6L287.197 195.4L287.397 214.2L317.197 216.8ZM476.961 172.2L478.361 281L450.961 281.2L446.761 274.2L442.161 281L378.961 280.4L363.961 269.4L367.561 217.4L379.161 209.4L435.161 208.4L435.761 194.8L407.361 192.8L403.961 200.2L367.361 197.8L365.361 183.4L375.761 165.8L463.761 164.6L476.961 172.2ZM436.561 249.8L436.361 231.4L406.561 231.8L407.761 248.6L436.561 249.8ZM598.469 121L599.669 280.8L574.269 281L569.869 274.6L564.869 280.2L501.269 281L486.869 265.4L484.469 179.6L496.869 164L556.669 168.6L557.869 123.2L598.469 121ZM556.469 246.8L556.069 202.8L529.469 201.8L527.069 246L556.469 246.8Z" fill="white"/>
</svg>
